# xmcd
#
# Track frame offsets:
#	150
#	27075
#	49858
#	93414
#	155804
#	223241
#	239702
#	257279
#	266199
#	278559
#
# Disc length: 3944 seconds
#
# Revision: 7
# Processed by: cddbd v1.5.2PL0 Copyright (c) Steve Scherf et al.
# Submitted via: EasyCDDAExtractor 10.0.5.1
#
DISCID=910f660a
DTITLE=Derek And The Dominos - Layla CD3 - The Layla Sessions
DYEAR=1970
DGENRE=Blues
TTITLE0=Have You Ever Loved A Woman (Alternate Master 1)
TTITLE1=Have You Ever Loved A Woman (Alternate Master 2)
TTITLE2=Tell The Truth (Jam 1)
TTITLE3=Tell The Truth (Jam 2)
TTITLE4=Mean Old World (Rehearsal)
TTITLE5=Mean Old World (Band Version, Master Take)
TTITLE6=Mean Old World (Duet Version, Master Take)
TTITLE7=(When Things Go Wrong) It Hurts Me Too (Jam)
TTITLE8=Tender Love (Incomplete Master)
TTITLE9=It's Too Late (Alternate Master)
EXTD=YEAR: 1970
EXTT0=
EXTT1=
EXTT2=
EXTT3=
EXTT4=
EXTT5=
EXTT6=
EXTT7=
EXTT8=
EXTT9=
PLAYORDER=
